<mxfile host="Electron" modified="2024-06-08T21:43:17.737Z" agent="Mozilla/5.0 (X11; Linux x86_64) AppleWebKit/537.36 (KHTML, like Gecko) draw.io/24.4.8 Chrome/124.0.6367.207 Electron/30.0.6 Safari/537.36" etag="mg6JXKqAaZahUwI7YLBf" version="24.3.1" type="device">
  <diagram name="Page-1" id="8FepHGOMSxIkJJAUNqv1">
    <mxGraphModel dx="1195" dy="799" grid="1" gridSize="10" guides="1" tooltips="1" connect="1" arrows="1" fold="1" page="1" pageScale="1" pageWidth="827" pageHeight="1169" math="0" shadow="0">
      <root>
        <mxCell id="0" />
        <mxCell id="1" parent="0" />
      </root>
    </mxGraphModel>
  </diagram>
</mxfile>
